<?xml version="1.0" standalone="no"?><!DOCTYPE svg PUBLIC "-//W3C//DTD SVG 1.1//EN" "http://www.w3.org/Graphics/SVG/1.1/DTD/svg11.dtd"><svg t="1617735356489" class="icon" viewBox="0 0 1024 1024" version="1.1" xmlns="http://www.w3.org/2000/svg" p-id="1343" xmlns:xlink="http://www.w3.org/1999/xlink" width="200" height="200"><defs><style type="text/css"></style></defs><path d="M396.373333 896a265.813333 265.813333 0 0 1-189.013333-80.213333 256 256 0 0 1-9.386667-362.24L512 136.533333A175.36 175.36 0 0 1 640 85.333333a191.146667 191.146667 0 0 1 136.106667 57.6 186.026667 186.026667 0 0 1 6.4 261.546667l-315.733334 317.013333a108.373333 108.373333 0 0 1-77.226666 32 116.053333 116.053333 0 0 1-83.2-34.986666 114.346667 114.346667 0 0 1-3.413334-160.853334l291.413334-292.693333a42.666667 42.666667 0 0 1 58.453333 60.16l-291.413333 292.693333a29.013333 29.013333 0 0 0 3.413333 40.533334 33.28 33.28 0 0 0 22.613333 9.813333 23.893333 23.893333 0 0 0 17.066667-6.826667l315.306667-317.013333a100.693333 100.693333 0 0 0-6.4-141.226667 101.546667 101.546667 0 0 0-139.52-6.4L258.56 512a170.666667 170.666667 0 0 0 9.386667 241.92 180.053333 180.053333 0 0 0 128 55.04 156.586667 156.586667 0 0 0 111.36-45.226667l315.306666-317.013333a42.666667 42.666667 0 1 1 60.586667 60.16l-315.306667 317.013333A241.066667 241.066667 0 0 1 396.373333 896z" p-id="1344"></path></svg>