<svg t="1617641104457" class="icon" viewBox="0 0 1024 1024" version="1.1" xmlns="http://www.w3.org/2000/svg" p-id="3995" id="mx_n_1617641104458" width="200" height="200"><path d="M490.624 405.333333L490.666667 896H266.666667a138.666667 138.666667 0 0 1-138.453334-130.773333L128 757.418667V405.290667h362.624z m64 256H917.333333v96.085334a138.666667 138.666667 0 0 1-138.666666 138.666666H554.666667l-0.042667-234.794666z m224.085333-554.752a138.666667 138.666667 0 0 1 138.453334 130.816l0.213333 7.850667L917.333333 597.333333h-362.709333L554.666667 106.666667h224.042666z m-288.042666 0L490.624 341.333333H128V245.333333a138.666667 138.666667 0 0 1 138.666667-138.666666h224z" p-id="3996" data-spm-anchor-id="a313x.7781069.0.i14" class=""></path></svg>