<?xml version="1.0" standalone="no"?><!DOCTYPE svg PUBLIC "-//W3C//DTD SVG 1.1//EN" "http://www.w3.org/Graphics/SVG/1.1/DTD/svg11.dtd"><svg t="1617735424003" class="icon" viewBox="0 0 1024 1024" version="1.1" xmlns="http://www.w3.org/2000/svg" p-id="3305" xmlns:xlink="http://www.w3.org/1999/xlink" width="200" height="200"><defs><style type="text/css"></style></defs><path d="M128 725.333333h512a42.666667 42.666667 0 0 1 4.992 85.034667L640 810.666667H128a42.666667 42.666667 0 0 1-4.992-85.034667L128 725.333333h512H128z m0-170.666666h768a42.666667 42.666667 0 0 1 4.992 85.034666L896 640H128a42.666667 42.666667 0 0 1-4.992-85.034667L128 554.666667h768H128z m0-170.666667h768a42.666667 42.666667 0 0 1 4.992 85.034667L896 469.333333H128a42.666667 42.666667 0 0 1-4.992-85.034666L128 384h768H128z m0-170.666667h768a42.666667 42.666667 0 0 1 4.992 85.034667L896 298.666667H128a42.666667 42.666667 0 0 1-4.992-85.034667L128 213.333333h768H128z" p-id="3306"></path></svg>